<?xml version="1.0" encoding="utf-8"?>
<!-- Generator: Adobe Illustrator 20.0.0, SVG Export Plug-In . SVG Version: 6.00 Build 0)  -->
<svg version="1.2" baseProfile="tiny" xmlns="http://www.w3.org/2000/svg" xmlns:xlink="http://www.w3.org/1999/xlink" x="0px"
	 y="0px" viewBox="0 0 612 792" xml:space="preserve">
<g id="Layer_1">
	<rect x="-77.8" y="418" fill="#FFFFFF" stroke="#ED1C24" stroke-miterlimit="10" width="23.5" height="23.5"/>
	<rect x="-77.8" y="488.5" fill="#FFFFFF" stroke="#ED1C24" stroke-miterlimit="10" width="23.5" height="23.5"/>
	<rect x="-54.2" y="441.5" fill="#FFFFFF" stroke="#ED1C24" stroke-miterlimit="10" width="23.5" height="23.5"/>
	<rect x="-77.8" y="465" fill="#FFFFFF" stroke="#ED1C24" stroke-miterlimit="10" width="23.5" height="23.5"/>
	
		<rect x="-54.2" y="418" transform="matrix(-1 -4.489443e-11 4.489443e-11 -1 -85 859.6)" fill="#FFFFFF" stroke="#ED1C24" stroke-miterlimit="10" width="23.5" height="23.5"/>
	
		<rect x="-54.2" y="488.5" transform="matrix(-1 -4.489443e-11 4.489443e-11 -1 -85 1000.6)" fill="#FFFFFF" stroke="#ED1C24" stroke-miterlimit="10" width="23.5" height="23.5"/>
	
		<rect x="-77.8" y="441.5" transform="matrix(-1 -4.489443e-11 4.489443e-11 -1 -132 906.6)" fill="#FFFFFF" stroke="#ED1C24" stroke-miterlimit="10" width="23.5" height="23.5"/>
	
		<rect x="-54.2" y="465" transform="matrix(-1 -4.489443e-11 4.489443e-11 -1 -85 953.6)" fill="#FFFFFF" stroke="#ED1C24" stroke-miterlimit="10" width="23.5" height="23.5"/>
</g>
<g id="Layer_2">
	<line fill="none" stroke="#000000" stroke-miterlimit="10" x1="34.3" y1="97.1" x2="57.8" y2="26.5"/>
	<line fill="none" stroke="#000000" stroke-miterlimit="10" x1="81.3" y1="97.1" x2="57.8" y2="26.5"/>
	<line fill="none" stroke="#000000" stroke-miterlimit="10" x1="42.2" y1="73.6" x2="73.5" y2="73.6"/>
	<line fill="none" stroke="#000000" stroke-miterlimit="10" x1="107.8" y1="97.1" x2="107.8" y2="26.5"/>
	<line fill="none" stroke="#000000" stroke-miterlimit="10" x1="154.8" y1="50" x2="107.8" y2="26.5"/>
	<line fill="none" stroke="#000000" stroke-miterlimit="10" x1="107.8" y1="61.8" x2="154.8" y2="50"/>
	<line fill="none" stroke="#000000" stroke-miterlimit="10" x1="154.8" y1="73.6" x2="107.8" y2="61.8"/>
	<line fill="none" stroke="#000000" stroke-miterlimit="10" x1="107.8" y1="97.1" x2="154.8" y2="73.6"/>
	<line fill="none" stroke="#000000" stroke-miterlimit="10" x1="221.2" y1="26.5" x2="174.2" y2="61.8"/>
	<line fill="none" stroke="#000000" stroke-miterlimit="10" x1="221.2" y1="97.1" x2="174.2" y2="61.8"/>
	<line fill="none" stroke="#000000" stroke-miterlimit="10" x1="242.7" y1="26.5" x2="242.7" y2="97.1"/>
	<line fill="none" stroke="#000000" stroke-miterlimit="10" x1="289.7" y1="61.8" x2="242.7" y2="26.5"/>
	<line fill="none" stroke="#000000" stroke-miterlimit="10" x1="242.7" y1="97.1" x2="289.7" y2="61.8"/>
	<line fill="none" stroke="#000000" stroke-miterlimit="10" x1="356" y1="26.5" x2="309" y2="26.5"/>
	<line fill="none" stroke="#000000" stroke-miterlimit="10" x1="356" y1="97.1" x2="309" y2="97.1"/>
	<line fill="none" stroke="#000000" stroke-miterlimit="10" x1="309" y1="26.5" x2="309" y2="97.1"/>
	<line fill="none" stroke="#000000" stroke-miterlimit="10" x1="344.2" y1="61.8" x2="309" y2="61.8"/>
	<line fill="none" stroke="#000000" stroke-miterlimit="10" x1="427" y1="26.5" x2="380" y2="26.5"/>
	<line fill="none" stroke="#000000" stroke-miterlimit="10" x1="380" y1="26.5" x2="380" y2="97.1"/>
	<line fill="none" stroke="#000000" stroke-miterlimit="10" x1="415.2" y1="61.8" x2="380" y2="61.8"/>
	<line fill="none" stroke="#000000" stroke-miterlimit="10" x1="479" y1="50" x2="455.5" y2="26.5"/>
	<line fill="none" stroke="#000000" stroke-miterlimit="10" x1="432" y1="61.8" x2="455.5" y2="26.5"/>
	<line fill="none" stroke="#000000" stroke-miterlimit="10" x1="455.5" y1="97.1" x2="432" y2="61.8"/>
	<line fill="none" stroke="#000000" stroke-miterlimit="10" x1="479" y1="73.6" x2="455.5" y2="97.1"/>
	<line fill="none" stroke="#000000" stroke-miterlimit="10" x1="455.5" y1="73.6" x2="479" y2="73.6"/>
	<line fill="none" stroke="#000000" stroke-miterlimit="10" x1="505.6" y1="26.5" x2="505.6" y2="97.1"/>
	<line fill="none" stroke="#000000" stroke-miterlimit="10" x1="552.6" y1="97.1" x2="552.6" y2="26.5"/>
	<line fill="none" stroke="#000000" stroke-miterlimit="10" x1="505.6" y1="61.8" x2="552.6" y2="61.8"/>
	<line fill="none" stroke="#000000" stroke-miterlimit="10" x1="34.3" y1="121.5" x2="81.3" y2="121.5"/>
	<line fill="none" stroke="#000000" stroke-miterlimit="10" x1="34.3" y1="192" x2="81.3" y2="192"/>
	<line fill="none" stroke="#000000" stroke-miterlimit="10" x1="57.8" y1="121.5" x2="57.8" y2="192"/>
	<line fill="none" stroke="#000000" stroke-miterlimit="10" x1="147.5" y1="121.5" x2="147.5" y2="168.5"/>
	<line fill="none" stroke="#000000" stroke-miterlimit="10" x1="124" y1="192" x2="147.5" y2="168.5"/>
	<line fill="none" stroke="#000000" stroke-miterlimit="10" x1="100.5" y1="168.5" x2="124" y2="192"/>
	<line fill="none" stroke="#000000" stroke-miterlimit="10" x1="174.2" y1="121.5" x2="174.2" y2="192"/>
	<line fill="none" stroke="#000000" stroke-miterlimit="10" x1="221.2" y1="121.5" x2="174.2" y2="156.8"/>
	<line fill="none" stroke="#000000" stroke-miterlimit="10" x1="221.2" y1="192" x2="174.2" y2="156.8"/>
	<line fill="none" stroke="#000000" stroke-miterlimit="10" x1="242.7" y1="121.5" x2="242.7" y2="192"/>
	<line fill="none" stroke="#000000" stroke-miterlimit="10" x1="289.7" y1="192" x2="242.7" y2="192"/>
	<line fill="none" stroke="#000000" stroke-miterlimit="10" x1="309" y1="192" x2="309" y2="121.5"/>
	<line fill="none" stroke="#000000" stroke-miterlimit="10" x1="356" y1="192" x2="356" y2="121.5"/>
	<line fill="none" stroke="#000000" stroke-miterlimit="10" x1="309" y1="121.5" x2="332.5" y2="168.5"/>
	<line fill="none" stroke="#000000" stroke-miterlimit="10" x1="356" y1="121.5" x2="332.5" y2="168.5"/>
	<line fill="none" stroke="#000000" stroke-miterlimit="10" x1="380" y1="121.5" x2="380" y2="192"/>
	<line fill="none" stroke="#000000" stroke-miterlimit="10" x1="427" y1="192" x2="380" y2="121.5"/>
	<line fill="none" stroke="#000000" stroke-miterlimit="10" x1="427" y1="121.5" x2="427" y2="192"/>
	<line fill="none" stroke="#000000" stroke-miterlimit="10" x1="437" y1="121.5" x2="484" y2="121.5"/>
	<line fill="none" stroke="#000000" stroke-miterlimit="10" x1="484" y1="192" x2="484" y2="121.5"/>
	<line fill="none" stroke="#000000" stroke-miterlimit="10" x1="437" y1="192" x2="437" y2="121.5"/>
	<line fill="none" stroke="#000000" stroke-miterlimit="10" x1="484" y1="192" x2="437" y2="192"/>
	<line fill="none" stroke="#000000" stroke-miterlimit="10" x1="34.3" y1="214.5" x2="81.3" y2="214.5"/>
	<line fill="none" stroke="#000000" stroke-miterlimit="10" x1="81.3" y1="285" x2="81.3" y2="214.5"/>
	<line fill="none" stroke="#000000" stroke-miterlimit="10" x1="34.3" y1="285" x2="34.3" y2="214.5"/>
	<line fill="none" stroke="#000000" stroke-miterlimit="10" x1="81.3" y1="285" x2="34.3" y2="285"/>
	<line fill="none" stroke="#000000" stroke-miterlimit="10" x1="505.6" y1="192" x2="505.6" y2="121.5"/>
	<line fill="none" stroke="#000000" stroke-miterlimit="10" x1="505.6" y1="168.5" x2="552.6" y2="145"/>
	<line fill="none" stroke="#000000" stroke-miterlimit="10" x1="505.6" y1="121.5" x2="552.6" y2="145"/>
	<line fill="none" stroke="#000000" stroke-miterlimit="10" x1="57.8" y1="261.5" x2="81.3" y2="285"/>
	<line fill="none" stroke="#000000" stroke-miterlimit="10" x1="100.5" y1="285" x2="100.5" y2="214.5"/>
	<line fill="none" stroke="#000000" stroke-miterlimit="10" x1="147.5" y1="238" x2="100.5" y2="214.5"/>
	<line fill="none" stroke="#000000" stroke-miterlimit="10" x1="100.5" y1="261.5" x2="147.5" y2="238"/>
	<line fill="none" stroke="#000000" stroke-miterlimit="10" x1="147.5" y1="285" x2="100.5" y2="261.5"/>
	<line fill="none" stroke="#000000" stroke-miterlimit="10" x1="171.3" y1="285" x2="218.3" y2="261.5"/>
	<line fill="none" stroke="#000000" stroke-miterlimit="10" x1="218.3" y1="214.5" x2="171.3" y2="238"/>
	<line fill="none" stroke="#000000" stroke-miterlimit="10" x1="218.3" y1="261.5" x2="171.3" y2="238"/>
	<line fill="none" stroke="#000000" stroke-miterlimit="10" x1="242.7" y1="214.5" x2="289.7" y2="214.5"/>
	<line fill="none" stroke="#000000" stroke-miterlimit="10" x1="266.2" y1="285" x2="266.2" y2="214.5"/>
	<line fill="none" stroke="#000000" stroke-miterlimit="10" x1="303.1" y1="214.5" x2="303.1" y2="285"/>
	<line fill="none" stroke="#000000" stroke-miterlimit="10" x1="350.1" y1="285" x2="303.1" y2="285"/>
	<line fill="none" stroke="#000000" stroke-miterlimit="10" x1="350.1" y1="214.5" x2="350.1" y2="285"/>
	<line fill="none" stroke="#000000" stroke-miterlimit="10" x1="374.1" y1="214.5" x2="397.6" y2="285"/>
	<line fill="none" stroke="#000000" stroke-miterlimit="10" x1="421.1" y1="214.5" x2="397.6" y2="285"/>
	<line fill="none" stroke="#000000" stroke-miterlimit="10" x1="437" y1="214.5" x2="448.8" y2="285"/>
	<line fill="none" stroke="#000000" stroke-miterlimit="10" x1="460.5" y1="238" x2="448.8" y2="285"/>
	<line fill="none" stroke="#000000" stroke-miterlimit="10" x1="472.3" y1="285" x2="460.5" y2="238"/>
	<line fill="none" stroke="#000000" stroke-miterlimit="10" x1="484" y1="214.5" x2="472.3" y2="285"/>
	<line fill="none" stroke="#000000" stroke-miterlimit="10" x1="505.8" y1="214.5" x2="552.8" y2="285"/>
	<line fill="none" stroke="#000000" stroke-miterlimit="10" x1="552.8" y1="214.5" x2="505.8" y2="285"/>
	<line fill="none" stroke="#000000" stroke-miterlimit="10" x1="34.3" y1="314.5" x2="57.8" y2="338"/>
	<line fill="none" stroke="#000000" stroke-miterlimit="10" x1="81.3" y1="314.5" x2="57.8" y2="338"/>
	<line fill="none" stroke="#000000" stroke-miterlimit="10" x1="57.8" y1="385" x2="57.8" y2="338"/>
	<line fill="none" stroke="#000000" stroke-miterlimit="10" x1="100.5" y1="314.5" x2="147.5" y2="314.5"/>
	<line fill="none" stroke="#000000" stroke-miterlimit="10" x1="100.5" y1="385" x2="147.5" y2="314.5"/>
	<line fill="none" stroke="#000000" stroke-miterlimit="10" x1="147.5" y1="385" x2="100.5" y2="385"/>
	<line fill="none" stroke="#000000" stroke-miterlimit="10" x1="70.6" y1="441.5" x2="47.1" y2="441.5"/>
	<line fill="none" stroke="#000000" stroke-miterlimit="10" x1="23.6" y1="465" x2="47.1" y2="441.5"/>
	<line fill="none" stroke="#000000" stroke-miterlimit="10" x1="47.1" y1="488.5" x2="23.6" y2="465"/>
	<line fill="none" stroke="#000000" stroke-miterlimit="10" x1="70.6" y1="488.5" x2="47.1" y2="488.5"/>
	<line fill="none" stroke="#000000" stroke-miterlimit="10" x1="70.6" y1="441.5" x2="70.6" y2="488.5"/>
	<line fill="none" stroke="#000000" stroke-miterlimit="10" x1="100.5" y1="418" x2="100.5" y2="488.5"/>
	<line fill="none" stroke="#000000" stroke-miterlimit="10" x1="147.5" y1="465" x2="100.5" y2="488.5"/>
	<line fill="none" stroke="#000000" stroke-miterlimit="10" x1="100.5" y1="441.5" x2="147.5" y2="465"/>
	<line fill="none" stroke="#000000" stroke-miterlimit="10" x1="282.9" y1="418" x2="282.9" y2="488.5"/>
	<line fill="none" stroke="#000000" stroke-miterlimit="10" x1="235.9" y1="465" x2="282.9" y2="488.5"/>
	<line fill="none" stroke="#000000" stroke-miterlimit="10" x1="282.9" y1="441.5" x2="235.9" y2="465"/>
	<line fill="none" stroke="#000000" stroke-miterlimit="10" x1="211" y1="441.5" x2="164" y2="465"/>
	<line fill="none" stroke="#000000" stroke-miterlimit="10" x1="211" y1="488.5" x2="164" y2="465"/>
	<line fill="none" stroke="#000000" stroke-miterlimit="10" x1="327.8" y1="441.5" x2="304.3" y2="465"/>
	<line fill="none" stroke="#000000" stroke-miterlimit="10" x1="327.8" y1="488.5" x2="304.3" y2="465"/>
	<line fill="none" stroke="#000000" stroke-miterlimit="10" x1="351.3" y1="465" x2="327.8" y2="441.5"/>
	<line fill="none" stroke="#000000" stroke-miterlimit="10" x1="304.3" y1="465" x2="351.3" y2="465"/>
	<line fill="none" stroke="#000000" stroke-miterlimit="10" x1="327.8" y1="488.5" x2="351.3" y2="488.5"/>
	<line fill="none" stroke="#000000" stroke-miterlimit="10" x1="384.5" y1="488.5" x2="384.5" y2="441.5"/>
	<line fill="none" stroke="#000000" stroke-miterlimit="10" x1="408" y1="418" x2="384.5" y2="441.5"/>
	<line fill="none" stroke="#000000" stroke-miterlimit="10" x1="396.3" y1="465" x2="372.8" y2="465"/>
	<line fill="none" stroke="#000000" stroke-miterlimit="10" x1="444.7" y1="513.4" x2="468.2" y2="489.9"/>
	<line fill="none" stroke="#000000" stroke-miterlimit="10" x1="468.2" y1="466.4" x2="444.7" y2="442.9"/>
	<line fill="none" stroke="#000000" stroke-miterlimit="10" x1="421.2" y1="466.4" x2="444.7" y2="442.9"/>
	<line fill="none" stroke="#000000" stroke-miterlimit="10" x1="444.7" y1="489.9" x2="421.2" y2="466.4"/>
	<line fill="none" stroke="#000000" stroke-miterlimit="10" x1="468.2" y1="466.4" x2="444.7" y2="489.9"/>
	<line fill="none" stroke="#000000" stroke-miterlimit="10" x1="468.2" y1="489.9" x2="468.2" y2="466.4"/>
	<line fill="none" stroke="#000000" stroke-miterlimit="10" x1="491.7" y1="418" x2="491.7" y2="488.5"/>
	<line fill="none" stroke="#000000" stroke-miterlimit="10" x1="491.7" y1="441.5" x2="538.7" y2="441.5"/>
	<line fill="none" stroke="#000000" stroke-miterlimit="10" x1="538.7" y1="488.5" x2="538.7" y2="441.5"/>
	<line fill="none" stroke="#000000" stroke-miterlimit="10" x1="573" y1="441.5" x2="573" y2="488.5"/>
	<line fill="none" stroke="#000000" stroke-miterlimit="10" x1="573" y1="418" x2="567.1" y2="423.9"/>
	<path fill="none" stroke="#000000" stroke-miterlimit="10" d="M567.1,423.9"/>
	<path fill="none" stroke="#000000" stroke-miterlimit="10" d="M573,429.8"/>
	<line fill="none" stroke="#000000" stroke-miterlimit="10" x1="573" y1="418" x2="578.8" y2="423.9"/>
	<path fill="none" stroke="#000000" stroke-miterlimit="10" d="M596.5,429.8"/>
	<path fill="none" stroke="#000000" stroke-miterlimit="10" d="M549.5,429.8"/>
	<line fill="none" stroke="#000000" stroke-miterlimit="10" x1="573" y1="429.8" x2="578.8" y2="423.9"/>
	<line fill="none" stroke="#000000" stroke-miterlimit="10" x1="573" y1="429.8" x2="567.1" y2="423.9"/>
	<line fill="none" stroke="#000000" stroke-miterlimit="10" x1="67.7" y1="538.9" x2="67.7" y2="585.9"/>
	<line fill="none" stroke="#000000" stroke-miterlimit="10" x1="67.7" y1="515.4" x2="61.8" y2="521.3"/>
	<path fill="none" stroke="#000000" stroke-miterlimit="10" d="M61.8,521.3"/>
	<path fill="none" stroke="#000000" stroke-miterlimit="10" d="M67.7,527.2"/>
	<line fill="none" stroke="#000000" stroke-miterlimit="10" x1="67.7" y1="515.4" x2="73.6" y2="521.3"/>
	<line fill="none" stroke="#000000" stroke-miterlimit="10" x1="67.7" y1="527.2" x2="73.6" y2="521.3"/>
	<line fill="none" stroke="#000000" stroke-miterlimit="10" x1="67.7" y1="527.2" x2="61.8" y2="521.3"/>
	<line fill="none" stroke="#000000" stroke-miterlimit="10" x1="44.2" y1="609.4" x2="67.7" y2="585.9"/>
	<line fill="none" stroke="#000000" stroke-miterlimit="10" x1="20.7" y1="585.9" x2="44.2" y2="609.4"/>
	<line fill="none" stroke="#000000" stroke-miterlimit="10" x1="100.5" y1="515.4" x2="100.5" y2="585.9"/>
	<line fill="none" stroke="#000000" stroke-miterlimit="10" x1="135.7" y1="544.8" x2="100.5" y2="562.4"/>
	<line fill="none" stroke="#000000" stroke-miterlimit="10" x1="147.5" y1="585.9" x2="100.5" y2="562.4"/>
	<line fill="none" stroke="#000000" stroke-miterlimit="10" x1="192" y1="515.4" x2="192" y2="585.9"/>
	<line fill="none" stroke="#000000" stroke-miterlimit="10" x1="180.2" y1="515.4" x2="192" y2="515.4"/>
	<line fill="none" stroke="#000000" stroke-miterlimit="10" x1="180.2" y1="585.9" x2="203.7" y2="585.9"/>
	<line fill="none" stroke="#000000" stroke-miterlimit="10" x1="233.8" y1="585.9" x2="245.6" y2="538.9"/>
	<line fill="none" stroke="#000000" stroke-miterlimit="10" x1="257.3" y1="562.4" x2="245.6" y2="538.9"/>
	<line fill="none" stroke="#000000" stroke-miterlimit="10" x1="269.1" y1="538.9" x2="257.3" y2="562.4"/>
	<line fill="none" stroke="#000000" stroke-miterlimit="10" x1="280.8" y1="585.9" x2="269.1" y2="538.9"/>
	<line fill="none" stroke="#000000" stroke-miterlimit="10" x1="366.8" y1="645.4" x2="378.6" y2="692.4"/>
	<line fill="none" stroke="#000000" stroke-miterlimit="10" x1="390.3" y1="668.9" x2="378.6" y2="692.4"/>
	<line fill="none" stroke="#000000" stroke-miterlimit="10" x1="402.1" y1="692.4" x2="390.3" y2="668.9"/>
	<line fill="none" stroke="#000000" stroke-miterlimit="10" x1="413.8" y1="645.4" x2="402.1" y2="692.4"/>
	<line fill="none" stroke="#000000" stroke-miterlimit="10" x1="304.3" y1="585.9" x2="304.3" y2="538.9"/>
	<line fill="none" stroke="#000000" stroke-miterlimit="10" x1="327.8" y1="538.9" x2="304.3" y2="552"/>
	<line fill="none" stroke="#000000" stroke-miterlimit="10" x1="351.3" y1="552" x2="327.8" y2="538.9"/>
	<line fill="none" stroke="#000000" stroke-miterlimit="10" x1="351.3" y1="585.9" x2="351.3" y2="552"/>
	<line fill="none" stroke="#000000" stroke-miterlimit="10" x1="372.8" y1="538.9" x2="419.8" y2="538.9"/>
	<line fill="none" stroke="#000000" stroke-miterlimit="10" x1="419.8" y1="585.9" x2="419.8" y2="538.9"/>
	<line fill="none" stroke="#000000" stroke-miterlimit="10" x1="372.8" y1="585.9" x2="419.8" y2="585.9"/>
	<line fill="none" stroke="#000000" stroke-miterlimit="10" x1="372.8" y1="538.9" x2="372.8" y2="585.9"/>
	<line fill="none" stroke="#000000" stroke-miterlimit="10" x1="441.2" y1="609.4" x2="441.2" y2="538.9"/>
	<line fill="none" stroke="#000000" stroke-miterlimit="10" x1="464.7" y1="538.9" x2="441.2" y2="550.7"/>
	<line fill="none" stroke="#000000" stroke-miterlimit="10" x1="488.2" y1="562.4" x2="464.7" y2="538.9"/>
	<line fill="none" stroke="#000000" stroke-miterlimit="10" x1="441.2" y1="585.9" x2="488.2" y2="562.4"/>
	<line fill="none" stroke="#000000" stroke-miterlimit="10" x1="547.2" y1="604.2" x2="535.4" y2="592.5"/>
	<line fill="none" stroke="#000000" stroke-miterlimit="10" x1="535.4" y1="533.7" x2="535.4" y2="592.5"/>
	<line fill="none" stroke="#000000" stroke-miterlimit="10" x1="500.2" y1="557.2" x2="535.4" y2="533.7"/>
	<line fill="none" stroke="#000000" stroke-miterlimit="10" x1="535.4" y1="580.7" x2="500.2" y2="557.2"/>
	<line fill="none" stroke="#000000" stroke-miterlimit="10" x1="20.7" y1="690.4" x2="20.7" y2="643.4"/>
	<line fill="none" stroke="#000000" stroke-miterlimit="10" x1="67.7" y1="643.4" x2="20.7" y2="656.6"/>
	<line fill="none" stroke="#000000" stroke-miterlimit="10" x1="85.1" y1="691.1" x2="132.1" y2="678"/>
	<line fill="none" stroke="#000000" stroke-miterlimit="10" x1="132.1" y1="642.7" x2="85.1" y2="655.9"/>
	<line fill="none" stroke="#000000" stroke-miterlimit="10" x1="132.1" y1="678" x2="85.1" y2="655.9"/>
	<line fill="none" stroke="#000000" stroke-miterlimit="10" x1="168.5" y1="619.9" x2="168.5" y2="666.9"/>
	<line fill="none" stroke="#000000" stroke-miterlimit="10" x1="192" y1="690.4" x2="168.5" y2="666.9"/>
	<line fill="none" stroke="#000000" stroke-miterlimit="10" x1="156.7" y1="643.4" x2="180.2" y2="643.4"/>
	<line fill="none" stroke="#000000" stroke-miterlimit="10" x1="220.7" y1="643.4" x2="220.7" y2="690.4"/>
	<line fill="none" stroke="#000000" stroke-miterlimit="10" x1="267.7" y1="643.4" x2="267.7" y2="690.4"/>
	<line fill="none" stroke="#000000" stroke-miterlimit="10" x1="220.7" y1="690.4" x2="267.7" y2="690.4"/>
	<line fill="none" stroke="#000000" stroke-miterlimit="10" x1="298.6" y1="645.4" x2="322.1" y2="692.4"/>
	<line fill="none" stroke="#000000" stroke-miterlimit="10" x1="345.6" y1="645.4" x2="322.1" y2="692.4"/>
	<line fill="none" stroke="#000000" stroke-miterlimit="10" x1="437.3" y1="690.4" x2="484.3" y2="643.4"/>
	<line fill="none" stroke="#000000" stroke-miterlimit="10" x1="437.3" y1="643.4" x2="484.3" y2="690.4"/>
	<line fill="none" stroke="#000000" stroke-miterlimit="10" x1="502.5" y1="713.9" x2="549.5" y2="643.4"/>
	<line fill="none" stroke="#000000" stroke-miterlimit="10" x1="502.5" y1="643.4" x2="526" y2="678.7"/>
	<line fill="none" stroke="#000000" stroke-miterlimit="10" x1="67.7" y1="769.5" x2="20.7" y2="769.5"/>
	<line fill="none" stroke="#000000" stroke-miterlimit="10" x1="20.7" y1="722.5" x2="67.7" y2="722.5"/>
	<line fill="none" stroke="#000000" stroke-miterlimit="10" x1="20.7" y1="769.5" x2="67.7" y2="722.5"/>
	<line fill="none" stroke="#000000" stroke-miterlimit="10" x1="211" y1="314.5" x2="187.5" y2="351.2"/>
	<line fill="none" stroke="#000000" stroke-miterlimit="10" x1="211" y1="385" x2="187.5" y2="351.2"/>
	<line fill="none" stroke="#000000" stroke-miterlimit="10" x1="234.5" y1="349.8" x2="211" y2="385"/>
	<line fill="none" stroke="#000000" stroke-miterlimit="10" x1="211" y1="314.5" x2="234.5" y2="349.8"/>
	<line fill="none" stroke="#000000" stroke-miterlimit="10" x1="269.1" y1="314.5" x2="269.1" y2="385"/>
	<line fill="none" stroke="#000000" stroke-miterlimit="10" x1="257.3" y1="338" x2="269.1" y2="314.5"/>
	<line fill="none" stroke="#000000" stroke-miterlimit="10" x1="295.2" y1="338" x2="318.8" y2="314.5"/>
	<line fill="none" stroke="#000000" stroke-miterlimit="10" x1="342.2" y1="338" x2="318.8" y2="314.5"/>
	<line fill="none" stroke="#000000" stroke-miterlimit="10" x1="295.2" y1="385" x2="342.2" y2="338"/>
	<line fill="none" stroke="#000000" stroke-miterlimit="10" x1="342.2" y1="385" x2="295.2" y2="385"/>
	<line fill="none" stroke="#000000" stroke-miterlimit="10" x1="357.9" y1="326.3" x2="381.4" y2="314.5"/>
	<line fill="none" stroke="#000000" stroke-miterlimit="10" x1="404.9" y1="338" x2="381.4" y2="314.5"/>
	<line fill="none" stroke="#000000" stroke-miterlimit="10" x1="381.4" y1="351.2" x2="404.9" y2="338"/>
	<line fill="none" stroke="#000000" stroke-miterlimit="10" x1="404.9" y1="361.5" x2="381.4" y2="351.2"/>
	<line fill="none" stroke="#000000" stroke-miterlimit="10" x1="381.4" y1="385" x2="404.9" y2="361.5"/>
	<line fill="none" stroke="#000000" stroke-miterlimit="10" x1="357.9" y1="374.7" x2="381.4" y2="385"/>
	<line fill="none" stroke="#000000" stroke-miterlimit="10" x1="425.4" y1="314.5" x2="425.4" y2="361.5"/>
	<line fill="none" stroke="#000000" stroke-miterlimit="10" x1="472.4" y1="361.5" x2="425.4" y2="361.5"/>
	<line fill="none" stroke="#000000" stroke-miterlimit="10" x1="472.4" y1="314.5" x2="472.4" y2="385"/>
	<line fill="none" stroke="#000000" stroke-miterlimit="10" x1="546.5" y1="315.9" x2="511.3" y2="315.9"/>
	<line fill="none" stroke="#000000" stroke-miterlimit="10" x1="499.5" y1="339.4" x2="511.3" y2="315.9"/>
	<line fill="none" stroke="#000000" stroke-miterlimit="10" x1="546.5" y1="362.9" x2="499.5" y2="339.4"/>
	<line fill="none" stroke="#000000" stroke-miterlimit="10" x1="499.5" y1="386.4" x2="546.5" y2="362.9"/>
	<line fill="none" stroke="#000000" stroke-miterlimit="10" x1="118.1" y1="781.2" x2="94.6" y2="757.8"/>
	<line fill="none" stroke="#000000" stroke-miterlimit="10" x1="141.6" y1="757.8" x2="118.1" y2="781.2"/>
	<line fill="none" stroke="#000000" stroke-miterlimit="10" x1="141.6" y1="710.8" x2="94.6" y2="734.2"/>
	<line fill="none" stroke="#000000" stroke-miterlimit="10" x1="118.1" y1="734.2" x2="94.6" y2="757.8"/>
	<line fill="none" stroke="#000000" stroke-miterlimit="10" x1="141.6" y1="757.8" x2="118.1" y2="734.2"/>
	<line fill="none" stroke="#000000" stroke-miterlimit="10" x1="94.6" y1="757.8" x2="94.6" y2="734.2"/>
	<line fill="none" stroke="#000000" stroke-miterlimit="10" x1="164" y1="710.8" x2="211" y2="710.8"/>
	<line fill="none" stroke="#000000" stroke-miterlimit="10" x1="164" y1="781.2" x2="211" y2="710.8"/>
	<line fill="none" stroke="#000000" stroke-miterlimit="10" x1="225.8" y1="782.9" x2="272.8" y2="782.9"/>
	<line fill="none" stroke="#000000" stroke-miterlimit="10" x1="272.8" y1="712.4" x2="272.8" y2="782.9"/>
	<line fill="none" stroke="#000000" stroke-miterlimit="10" x1="225.8" y1="712.4" x2="272.8" y2="712.4"/>
	<line fill="none" stroke="#000000" stroke-miterlimit="10" x1="225.8" y1="782.9" x2="225.8" y2="712.4"/>
	<line fill="none" stroke="#000000" stroke-miterlimit="10" x1="272.8" y1="747.4" x2="225.7" y2="747.7"/>
	<line fill="none" stroke="#000000" stroke-miterlimit="10" x1="339.6" y1="781.2" x2="339.6" y2="710.8"/>
	<line fill="none" stroke="#000000" stroke-miterlimit="10" x1="292.6" y1="734.2" x2="339.6" y2="710.8"/>
	<line fill="none" stroke="#000000" stroke-miterlimit="10" x1="339.6" y1="757.8" x2="292.6" y2="734.2"/>
</g>
</svg>
